<svg xmlns="http://www.w3.org/2000/svg" viewBox="0 0 240 320" preserveAspectRatio="xMidYMid meet">
  <defs>
    <linearGradient id="snow" x1="0" y1="0" x2="0" y2="1">
      <stop offset="0%" stop-color="#ffffff" />
      <stop offset="100%" stop-color="#dbeafe" />
    </linearGradient>
    <linearGradient id="scarf" x1="0" y1="0" x2="1" y2="1">
      <stop offset="0%" stop-color="#0284c7" />
      <stop offset="100%" stop-color="#0ea5e9" />
    </linearGradient>
    <linearGradient id="hat" x1="0" y1="0" x2="1" y2="1">
      <stop offset="0%" stop-color="#1f2937" />
      <stop offset="100%" stop-color="#111827" />
    </linearGradient>
    <filter id="softShadow" x="-25%" y="-25%" width="150%" height="150%">
      <feDropShadow dx="0" dy="10" stdDeviation="10" flood-color="#0f172a" flood-opacity="0.15" />
    </filter>
  </defs>

  <rect width="240" height="320" rx="28" fill="#eef2ff" />
  <ellipse cx="120" cy="305" rx="90" ry="12" fill="#cbd5e1" opacity="0.5" filter="url(#softShadow)" />

  <circle cx="120" cy="220" r="60" fill="url(#snow)" stroke="#cbd5e1" stroke-width="4" />
  <circle cx="120" cy="120" r="46" fill="url(#snow)" stroke="#cbd5e1" stroke-width="4" />
  <circle cx="120" cy="52" r="30" fill="url(#snow)" stroke="#cbd5e1" stroke-width="4" />

  <path d="M78 135 C72 128 68 120 68 112 C68 98 82 90 96 92 C100 94 106 98 112 108" stroke="#111827" stroke-width="5" fill="none" stroke-linecap="round" />
  <path d="M162 135 C168 128 172 120 172 112 C172 98 158 90 144 92 C140 94 134 98 128 108" stroke="#111827" stroke-width="5" fill="none" stroke-linecap="round" />
  <circle cx="108" cy="52" r="6" fill="#111827" />
  <circle cx="132" cy="52" r="6" fill="#111827" />
  <path d="M104 70 C114 86 126 86 136 70" stroke="#111827" stroke-width="5" fill="none" stroke-linecap="round" />

  <path d="M70 158 C70 170 72 178 74 188" stroke="#f97316" stroke-width="8" stroke-linecap="round" />
  <path d="M170 158 C170 170 168 178 166 188" stroke="#f97316" stroke-width="8" stroke-linecap="round" />

  <path d="M70 190 C105 170 135 168 170 190" fill="none" stroke="#111827" stroke-width="8" stroke-linecap="round" />
  <path d="M72 150 C110 138 130 136 168 150" fill="none" stroke="#0ea5e9" stroke-width="14" stroke-linecap="round" />

  <path d="M86 20 H154 V32 C154 40 148 46 140 46 H100 C92 46 86 40 86 32 Z" fill="url(#hat)" />
  <rect x="88" y="32" width="64" height="20" rx="10" fill="#111827" />
  <path d="M98 18 C98 10 106 4 116 4 H124 C134 4 142 10 142 18" fill="#111827" />
</svg>
