<svg xmlns="http://www.w3.org/2000/svg" viewBox="0 0 500 500" preserveAspectRatio="xMidYMid meet">
  <defs>
    <linearGradient id="bg" x1="0" y1="0" x2="1" y2="1">
      <stop offset="0%" stop-color="#eef2ff" />
      <stop offset="100%" stop-color="#dbeafe" />
    </linearGradient>
    <linearGradient id="skin" x1="0" y1="0" x2="0" y2="1">
      <stop offset="0%" stop-color="#f6d8b3" />
      <stop offset="100%" stop-color="#e4b788" />
    </linearGradient>
    <linearGradient id="hair" x1="0" y1="0" x2="1" y2="1">
      <stop offset="0%" stop-color="#334155" />
      <stop offset="100%" stop-color="#0f172a" />
    </linearGradient>
    <linearGradient id="jacket" x1="0" y1="0" x2="1" y2="1">
      <stop offset="0%" stop-color="#0ea5e9" />
      <stop offset="100%" stop-color="#0369a1" />
    </linearGradient>
    <linearGradient id="pants" x1="0" y1="0" x2="1" y2="1">
      <stop offset="0%" stop-color="#1e40af" />
      <stop offset="100%" stop-color="#1e3a8a" />
    </linearGradient>
  </defs>

  <rect width="500" height="500" rx="40" fill="url(#bg)" />
  <ellipse cx="250" cy="470" rx="150" ry="18" fill="#c7d2fe" opacity="0.5" />

  <path d="M160 160 C160 120 210 90 250 90 C290 90 340 120 340 160 C340 220 300 240 250 240 C200 240 160 220 160 160 Z" fill="url(#hair)" />
  <ellipse cx="250" cy="190" rx="72" ry="86" fill="url(#skin)" />
  <path d="M185 170 C190 150 210 140 250 140 C290 140 310 150 315 170" stroke="#0f172a" stroke-width="8" fill="none" opacity="0.75" stroke-linecap="round" />
  <circle cx="220" cy="200" r="12" fill="#0f172a" />
  <circle cx="280" cy="200" r="12" fill="#0f172a" />
  <path d="M225 235 Q250 255 275 235" stroke="#0f172a" stroke-width="10" fill="none" stroke-linecap="round" />

  <path d="M160 250 C170 300 180 320 190 340 C195 350 185 365 178 390 C175 400 185 420 200 420 H300 C315 420 325 400 322 390 C315 365 305 350 310 340 C320 320 330 300 340 250 Z" fill="url(#jacket)" />
  <path d="M200 420 C190 430 180 455 180 470 H210 C210 460 220 450 225 440 C235 425 235 410 230 395 C225 385 210 375 200 420 Z" fill="#0f172a" opacity="0.12" />
  <path d="M300 420 C310 430 320 455 320 470 H290 C290 460 280 450 275 440 C265 425 265 410 270 395 C275 385 290 375 300 420 Z" fill="#0f172a" opacity="0.12" />

  <path d="M190 300 C185 330 180 355 170 385" stroke="#0f172a" stroke-width="20" stroke-linecap="round" />
  <path d="M310 300 C315 330 320 355 330 385" stroke="#0f172a" stroke-width="20" stroke-linecap="round" />

  <path d="M180 315 C180 335 175 360 165 385" stroke="#0f172a" stroke-width="18" stroke-linecap="round" />
  <path d="M320 315 C320 335 325 360 335 385" stroke="#0f172a" stroke-width="18" stroke-linecap="round" />

  <path d="M250 255 C230 250 210 265 220 285 C235 312 265 312 280 285 C290 270 280 255 250 255 Z" fill="#7dd3fc" opacity="0.5" />
</svg>
